HIERARCHY
ROOT Hips
{
	OFFSET 0.00000 0.00000 0.00000
	CHANNELS 6 Xposition Yposition Zposition Zrotation Yrotation Xrotation 
	JOINT LHipJoint
	{
		OFFSET 0 0 0
		CHANNELS 3 Zrotation Yrotation Xrotation
		JOINT LeftUpLeg
		{
			OFFSET 1.34019 -1.87553 0.90315
			CHANNELS 3 Zrotation Yrotation Xrotation
			JOINT LeftLeg
			{
				OFFSET 2.55316 -7.01474 0.00000
				CHANNELS 3 Zrotation Yrotation Xrotation
				JOINT LeftFoot
				{
					OFFSET 2.64657 -7.27139 0.00000
					CHANNELS 3 Zrotation Yrotation Xrotation
					JOINT LeftToeBase
					{
						OFFSET 0.24207 -0.66507 2.14489
						CHANNELS 3 Zrotation Yrotation Xrotation
						End Site
						{
							OFFSET 0.00000 -0.00000 1.12451
						}
					}
				}
			}
		}
	}
	JOINT RHipJoint
	{
		OFFSET 0 0 0
		CHANNELS 3 Zrotation Yrotation Xrotation
		JOINT RightUpLeg
		{
			OFFSET -1.28320 -1.87553 0.90315
			CHANNELS 3 Zrotation Yrotation Xrotation
			JOINT RightLeg
			{
				OFFSET -2.60484 -7.15674 0.00000
				CHANNELS 3 Zrotation Yrotation Xrotation
				JOINT RightFoot
				{
					OFFSET -2.60296 -7.15159 0.00000
					CHANNELS 3 Zrotation Yrotation Xrotation
					JOINT RightToeBase
					{
						OFFSET -0.31082 -0.85398 2.28998
						CHANNELS 3 Zrotation Yrotation Xrotation
						End Site
						{
							OFFSET -0.00000 -0.00000 1.21611
						}
					}
				}
			}
		}
	}
	JOINT LowerBack
	{
		OFFSET 0 0 0
		CHANNELS 3 Zrotation Yrotation Xrotation
		JOINT Spine
		{
			OFFSET -0.00160 2.05581 -0.15156
			CHANNELS 3 Zrotation Yrotation Xrotation
			JOINT Spine1
			{
				OFFSET 0.04594 2.06326 -0.01617
				CHANNELS 3 Zrotation Yrotation Xrotation
				JOINT Neck
				{
					OFFSET 0 0 0
					CHANNELS 3 Zrotation Yrotation Xrotation
					JOINT Neck1
					{
						OFFSET 0.03753 1.73883 0.26751
						CHANNELS 3 Zrotation Yrotation Xrotation
						JOINT Head
						{
							OFFSET -0.09795 1.76129 -0.31794
							CHANNELS 3 Zrotation Yrotation Xrotation
							End Site
							{
								OFFSET -0.03611 1.79987 -0.13846
							}
						}
					}
				}
				JOINT LeftShoulder
				{
					OFFSET 0 0 0
					CHANNELS 3 Zrotation Yrotation Xrotation
					JOINT LeftArm
					{
						OFFSET 3.30667 1.29205 -0.22445
						CHANNELS 3 Zrotation Yrotation Xrotation
						JOINT LeftForeArm
						{
							OFFSET 4.92785 -0.00000 -0.00000
							CHANNELS 3 Zrotation Yrotation Xrotation
							JOINT LeftHand
							{
								OFFSET 3.44052 -0.00000 0.00000
								CHANNELS 3 Zrotation Yrotation Xrotation
								JOINT LeftFingerBase
								{
									OFFSET 0 0 0
									CHANNELS 3 Zrotation Yrotation Xrotation
									JOINT LeftHandIndex1
									{
										OFFSET 0.65433 -0.00000 0.00000
										CHANNELS 3 Zrotation Yrotation Xrotation
										End Site
										{
											OFFSET 0.52753 -0.00000 0.00000
										}
									}
								}
								JOINT LThumb
								{
									OFFSET 0 0 0
									CHANNELS 3 Zrotation Yrotation Xrotation
									End Site
									{
										OFFSET 0.53559 -0.00000 0.53559
									}
								}
							}
						}
					}
				}
				JOINT RightShoulder
				{
					OFFSET 0 0 0
					CHANNELS 3 Zrotation Yrotation Xrotation
					JOINT RightArm
					{
						OFFSET -3.20032 1.49783 -0.27688
						CHANNELS 3 Zrotation Yrotation Xrotation
						JOINT RightForeArm
						{
							OFFSET -5.09181 -0.00000 -0.00000
							CHANNELS 3 Zrotation Yrotation Xrotation
							JOINT RightHand
							{
								OFFSET -3.49865 -0.00000 -0.00000
								CHANNELS 3 Zrotation Yrotation Xrotation
								JOINT RightFingerBase
								{
									OFFSET 0 0 0
									CHANNELS 3 Zrotation Yrotation Xrotation
									JOINT RightHandIndex1
									{
										OFFSET -0.66641 -0.00000 0.00000
										CHANNELS 3 Zrotation Yrotation Xrotation
										End Site
										{
											OFFSET -0.53728 -0.00000 0.00000
										}
									}
								}
								JOINT RThumb
								{
									OFFSET 0 0 0
									CHANNELS 3 Zrotation Yrotation Xrotation
									End Site
									{
										OFFSET -0.54548 -0.00000 0.54548
									}
								}
							}
						}
					}
				}
			}
		}
	}
}
MOTION
Frames: 14
Frame Time: .0083333
0.6289 18.3338 5.6358 0 0 0 0 0 0 -21 0 0 0 0 0 0 0 0 0 0 0 0 0 0 21 0 0 0 0 0 0 0 0 0 0 0 0 0 0 0 0 0 0 0 0 0 0 -16 0 0 21 0 0 11 0 0 0 -8 0 0 0 0 0 0 0 0 0 0 0 0 0 0 0 0 0 0 0 0 8 0 0 0 0 0 0 0 0 0 0 0 0 0 0 0 0 0
0.6289 18.3338 5.6358 -1.2543 3.3696 2.4527 0.0000 0.0000 0.0000 0.0000 0.0000 0.0000 0.0000 0.0000 0.0000 0.0000 0.0000 0.0000 0.0000 0.0000 0.0000 0.0000 0.0000 0.0000 14.4283 1.1263 -0.0354 -0.5587 -4.7877 13.3040 1.4861 -21.6017 -13.8982 -0.0610 1.5940 -4.3848 -0.9230 -0.3423 2.3385 1.5730 -0.4565 -0.4796 2.1493 -0.2100 -1.7827 4.7233 0.9273 -22.6921 -5.4304 0.8722 15.6626 -2.5087 0.0968 8.6505 -0.0000 -0.0000 0.0000 -24.8483 8.5956 -26.8896 11.2540 -18.6766 -1.8564 -0.0000 -0.0000 8.6838 14.4155 5.1203 1.3142 -7.1250 0.0000 -0.0000 -10.1693 35.1166 2.5012 -0.0000 -0.0000 0.0000 20.5676 -9.7802 -33.6354 -11.1935 18.5843 -1.8371 0.0000 0.0000 6.9169 -12.6170 -9.3516 2.0830 7.1250 -0.0000 -0.0000 12.4252 -39.2637 1.7886
0.6261 18.3340 5.6356 -1.2240 3.3855 2.4651 0.0000 0.0000 0.0000 0.0000 0.0000 0.0000 0.0000 0.0000 0.0000 0.0000 0.0000 0.0000 0.0000 0.0000 0.0000 0.0000 0.0000 0.0000 14.4085 1.1598 -0.0697 -0.5644 -4.8116 13.3721 1.4871 -21.6176 -13.9469 -0.0627 1.6158 -4.4449 -0.9575 -0.3321 2.3220 1.5623 -0.4439 -0.5006 2.1572 -0.2032 -1.7955 4.6838 0.9019 -22.6290 -5.3892 0.8466 15.7272 -2.4921 0.0876 8.6601 -0.0000 -0.0000 0.0000 -24.8266 8.4591 -26.9931 11.2153 -18.6175 -1.8441 -0.0000 -0.0000 8.7631 14.4404 5.0491 1.2983 -7.1250 0.0000 -0.0000 -10.1384 35.0454 2.5112 -0.0000 -0.0000 0.0000 20.5969 -9.8900 -33.2512 -11.2528 18.6748 -1.8561 0.0000 0.0000 6.3267 -12.6927 -9.6977 2.1727 7.1250 -0.0000 -0.0000 12.4347 -39.6150 1.6805
0.6229 18.3338 5.6355 -1.1874 3.3532 2.4614 0.0000 0.0000 0.0000 0.0000 0.0000 0.0000 0.0000 0.0000 0.0000 0.0000 0.0000 0.0000 0.0000 0.0000 0.0000 0.0000 0.0000 0.0000 14.3791 1.1834 -0.0803 -0.5665 -4.8207 13.3978 1.4856 -21.6076 -13.9423 -0.0627 1.6158 -4.4450 -1.0031 -0.3122 2.3084 1.5556 -0.4188 -0.4919 2.1749 -0.1904 -1.7797 4.8092 0.9367 -22.5140 -5.5190 0.8783 15.5130 -2.5490 0.0974 8.5702 -0.0000 -0.0000 0.0000 -24.8254 8.3999 -26.9432 11.2036 -18.5997 -1.8403 -0.0000 -0.0000 8.8284 14.4327 4.9318 1.2675 -7.1250 0.0000 -0.0000 -10.1277 34.9260 2.5383 -0.0000 -0.0000 0.0000 20.6019 -9.9199 -33.1733 -11.2549 18.6778 -1.8567 0.0000 0.0000 6.1446 -12.7371 -9.7023 2.1816 7.1250 -0.0000 -0.0000 12.3978 -39.6231 1.6728
0.6206 18.3340 5.6357 -1.2141 3.3630 2.4550 0.0000 0.0000 0.0000 0.0000 0.0000 0.0000 0.0000 0.0000 0.0000 0.0000 0.0000 0.0000 0.0000 0.0000 0.0000 0.0000 0.0000 0.0000 14.4203 1.1866 -0.0832 -0.5685 -4.8288 13.4210 1.4859 -21.6151 -13.9694 -0.0623 1.6101 -4.4293 -0.9904 -0.3220 2.3198 1.5696 -0.4310 -0.5312 2.1829 -0.1958 -1.8259 4.6864 0.9147 -22.5606 -5.3922 0.8703 15.8297 -2.4914 0.0994 8.6848 0.0000 0.0000 0.0000 -24.8287 8.4341 -26.7590 11.2107 -18.6105 -1.8426 -0.0000 -0.0000 8.7459 14.4992 4.9113 1.2683 -7.1250 0.0000 -0.0000 -10.0703 34.9082 2.5280 0.0000 0.0000 0.0000 20.5826 -9.8859 -33.1650 -11.2411 18.6569 -1.8523 0.0000 0.0000 6.2334 -12.6015 -9.7874 2.1763 7.1250 -0.0000 -0.0000 12.5318 -39.6971 1.6683
0.6181 18.3339 5.6359 -1.2333 3.3638 2.4471 0.0000 0.0000 0.0000 0.0000 0.0000 0.0000 0.0000 0.0000 0.0000 0.0000 0.0000 0.0000 0.0000 0.0000 0.0000 0.0000 0.0000 0.0000 14.4533 1.1945 -0.0771 -0.5692 -4.8316 13.4290 1.4869 -21.6230 -13.9801 -0.0623 1.6111 -4.4321 -0.9814 -0.3220 2.3160 1.5788 -0.4305 -0.5449 2.1873 -0.1954 -1.8379 4.6570 0.9136 -22.5343 -5.3555 0.8748 15.9248 -2.4745 0.1041 8.7129 0.0000 -0.0000 0.0000 -24.8315 8.4184 -26.6553 11.2129 -18.6138 -1.8433 -0.0000 -0.0000 8.6874 14.5247 4.8869 1.2644 -7.1250 0.0000 -0.0000 -10.0460 34.8847 2.5276 0.0000 -0.0000 0.0000 20.5797 -9.8895 -33.0770 -11.2440 18.6614 -1.8533 0.0000 0.0000 6.1518 -12.5661 -9.8297 2.1793 7.1250 -0.0000 -0.0000 12.5714 -39.7366 1.6613
0.6158 18.3336 5.6363 -1.2628 3.3670 2.4323 0.0000 0.0000 0.0000 0.0000 0.0000 0.0000 0.0000 0.0000 0.0000 0.0000 0.0000 0.0000 0.0000 0.0000 0.0000 0.0000 0.0000 0.0000 14.4960 1.1876 -0.0551 -0.5680 -4.8270 13.4157 1.4876 -21.6272 -13.9789 -0.0624 1.6119 -4.4344 -0.9610 -0.3251 2.3126 1.5907 -0.4337 -0.5532 2.1883 -0.1970 -1.8444 4.6445 0.9176 -22.4883 -5.3302 0.8832 15.9945 -2.4633 0.1107 8.7292 -0.0000 0.0000 0.0000 -24.8387 8.4084 -26.5692 11.2182 -18.6219 -1.8450 -0.0000 -0.0000 8.6309 14.5404 4.8926 1.2672 -7.1250 0.0000 -0.0000 -10.0339 34.8911 2.5229 -0.0000 0.0000 0.0000 20.5772 -9.8905 -32.9717 -11.2514 18.6726 -1.8556 0.0000 0.0000 6.0769 -12.5308 -9.8663 2.1810 7.1250 -0.0000 -0.0000 12.6095 -39.7702 1.6559
0.6139 18.3332 5.6371 -1.2959 3.3746 2.4129 0.0000 0.0000 0.0000 0.0000 0.0000 0.0000 0.0000 0.0000 0.0000 0.0000 0.0000 0.0000 0.0000 0.0000 0.0000 0.0000 0.0000 0.0000 14.5397 1.1645 -0.0317 -0.5670 -4.8228 13.4038 1.4868 -21.6214 -13.9752 -0.0626 1.6149 -4.4425 -0.9336 -0.3315 2.3067 1.6018 -0.4412 -0.5568 2.1846 -0.2010 -1.8445 4.6398 0.9203 -22.4151 -5.3078 0.8882 16.0363 -2.4542 0.1161 8.7311 0.0000 0.0000 0.0000 -24.8459 8.3931 -26.5286 11.2210 -18.6263 -1.8459 -0.0000 -0.0000 8.6016 14.5412 4.9208 1.2746 -7.1250 0.0000 -0.0000 -10.0374 34.9197 2.5166 0.0000 0.0000 0.0000 20.5798 -9.9027 -32.7982 -11.2715 18.7032 -1.8621 0.0000 0.0000 5.9461 -12.5045 -9.9274 2.1896 7.1250 -0.0000 -0.0000 12.6453 -39.8288 1.6421
0.6123 18.3326 5.6382 -1.3252 3.3829 2.3888 0.0000 0.0000 0.0000 0.0000 0.0000 0.0000 0.0000 0.0000 0.0000 0.0000 0.0000 0.0000 0.0000 0.0000 0.0000 0.0000 0.0000 0.0000 14.5768 1.1291 -0.0045 -0.5659 -4.8181 13.3904 1.4846 -21.6070 -13.9670 -0.0629 1.6186 -4.4527 -0.9084 -0.3388 2.2992 1.6103 -0.4500 -0.5543 2.1794 -0.2057 -1.8375 4.6691 0.9293 -22.3100 -5.3155 0.8961 16.0093 -2.4595 0.1221 8.7044 0.0000 0.0000 0.0000 -24.8518 8.3651 -26.5475 11.2184 -18.6223 -1.8451 -0.0000 -0.0000 8.6286 14.5227 4.9619 1.2835 -7.1250 0.0000 -0.0000 -10.0584 34.9607 2.5119 0.0000 0.0000 0.0000 20.5874 -9.9264 -32.5861 -11.3002 18.7470 -1.8713 0.0000 0.0000 5.7913 -12.4786 -9.9921 2.1990 7.1250 -0.0000 -0.0000 12.6818 -39.8913 1.6272
0.6109 18.3319 5.6396 -1.3455 3.3927 2.3640 0.0000 0.0000 0.0000 0.0000 0.0000 0.0000 0.0000 0.0000 0.0000 0.0000 0.0000 0.0000 0.0000 0.0000 0.0000 0.0000 0.0000 0.0000 14.6004 1.0779 0.0175 -0.5651 -4.8147 13.3809 1.4803 -21.5791 -13.9535 -0.0633 1.6231 -4.4651 -0.8885 -0.3463 2.2908 1.6144 -0.4593 -0.5499 2.1726 -0.2107 -1.8279 4.7305 0.9416 -22.1768 -5.3540 0.9044 15.9329 -2.4797 0.1273 8.6563 0.0000 0.0000 0.0000 -24.8558 8.3264 -26.6196 11.2090 -18.6079 -1.8421 -0.0000 -0.0000 8.7169 14.4949 4.9976 1.2901 -7.1250 0.0000 -0.0000 -10.0863 34.9956 2.5104 0.0000 0.0000 0.0000 20.5988 -9.9580 -32.3774 -11.3294 18.7914 -1.8807 0.0000 0.0000 5.6628 -12.4505 -10.0445 2.2053 7.1250 -0.0000 -0.0000 12.7174 -39.9411 1.6160
0.6096 18.3311 5.6411 -1.3586 3.3986 2.3386 0.0000 0.0000 0.0000 0.0000 0.0000 0.0000 0.0000 0.0000 0.0000 0.0000 0.0000 0.0000 0.0000 0.0000 0.0000 0.0000 0.0000 0.0000 14.6145 1.0276 0.0369 -0.5649 -4.8137 13.3781 1.4752 -21.5467 -13.9425 -0.0636 1.6267 -4.4751 -0.8752 -0.3523 2.2796 1.6152 -0.4670 -0.5431 2.1661 -0.2148 -1.8145 4.7936 0.9513 -22.0560 -5.3954 0.9086 15.8525 -2.5018 0.1301 8.6089 -0.0000 0.0000 0.0000 -24.8571 8.2851 -26.7125 11.1972 -18.5899 -1.8383 -0.0000 -0.0000 8.8325 14.4571 5.0187 1.2920 -7.1250 0.0000 -0.0000 -10.1203 35.0154 2.5141 -0.0000 0.0000 0.0000 20.6120 -9.9849 -32.2304 -11.3496 18.8221 -1.8872 0.0000 0.0000 5.6215 -12.4021 -10.0509 2.1978 7.1250 -0.0000 -0.0000 12.7602 -39.9435 1.6209
0.6083 18.3304 5.6427 -1.3633 3.4000 2.3162 0.0000 0.0000 0.0000 0.0000 0.0000 0.0000 0.0000 0.0000 0.0000 0.0000 0.0000 0.0000 0.0000 0.0000 0.0000 0.0000 0.0000 0.0000 14.6192 0.9855 0.0510 -0.5653 -4.8154 13.3827 1.4701 -21.5149 -13.9339 -0.0638 1.6302 -4.4848 -0.8714 -0.3559 2.2638 1.6132 -0.4718 -0.5331 2.1619 -0.2175 -1.7951 4.8561 0.9585 -21.9559 -5.4377 0.9094 15.7767 -2.5247 0.1310 8.5664 0.0000 -0.0000 0.0000 -24.8585 8.2465 -26.7972 11.1886 -18.5768 -1.8356 -0.0000 -0.0000 8.9405 14.4242 5.0248 1.2905 -7.1250 0.0000 -0.0000 -10.1481 35.0200 2.5200 0.0000 -0.0000 0.0000 20.6244 -9.9960 -32.1893 -11.3526 18.8267 -1.8881 0.0000 0.0000 5.7016 -12.3444 -9.9764 2.1713 7.1250 -0.0000 -0.0000 12.7929 -39.8647 1.6505
0.6069 18.3298 5.6442 -1.3702 3.3960 2.2977 0.0000 0.0000 0.0000 0.0000 0.0000 0.0000 0.0000 0.0000 0.0000 0.0000 0.0000 0.0000 0.0000 0.0000 0.0000 0.0000 0.0000 0.0000 14.6289 0.9616 0.0614 -0.5661 -4.8189 13.3928 1.4665 -21.4933 -13.9298 -0.0642 1.6345 -4.4964 -0.8682 -0.3563 2.2445 1.6117 -0.4723 -0.5213 2.1584 -0.2181 -1.7722 4.8673 0.9483 -21.9098 -5.4330 0.8926 15.7674 -2.5267 0.1249 8.5543 -0.0000 -0.0000 0.0000 -24.8580 8.2139 -26.8566 11.1845 -18.5706 -1.8343 -0.0000 -0.0000 9.0168 14.3941 5.0261 1.2881 -7.1250 0.0000 -0.0000 -10.1730 35.0199 2.5264 -0.0000 -0.0000 0.0000 20.6360 -9.9943 -32.2279 -11.3425 18.8113 -1.8849 0.0000 0.0000 5.8610 -12.2895 -9.8665 2.1378 7.1250 -0.0000 -0.0000 12.8154 -39.7509 1.6902
0.6052 18.3293 5.6455 -1.3802 3.3859 2.2827 0.0000 0.0000 0.0000 0.0000 0.0000 0.0000 0.0000 0.0000 0.0000 0.0000 0.0000 0.0000 0.0000 0.0000 0.0000 0.0000 0.0000 0.0000 14.6451 0.9586 0.0700 -0.5673 -4.8240 13.4071 1.4648 -21.4839 -13.9344 -0.0642 1.6350 -4.4979 -0.8652 -0.3529 2.2239 1.6115 -0.4678 -0.5104 2.1560 -0.2161 -1.7497 4.8264 0.9213 -21.9050 -5.3792 0.8593 15.8210 -2.5067 0.1126 8.5695 -0.0000 0.0000 0.0000 -24.8557 8.1893 -26.8754 11.1854 -18.5719 -1.8345 -0.0000 -0.0000 9.0461 14.3763 5.0229 1.2856 -7.1250 0.0000 -0.0000 -10.1871 35.0157 2.5311 -0.0000 0.0000 0.0000 20.6442 -9.9886 -32.2995 -11.3249 18.7846 -1.8792 0.0000 0.0000 6.0331 -12.2474 -9.7513 2.1056 7.1250 -0.0000 -0.0000 12.8259 -39.6330 1.7296
